<svg width="17" height="20" viewBox="0 0 17 20" fill="none" xmlns="http://www.w3.org/2000/svg">
<g clip-path="url(#clip0_1_619)">
<path fill-rule="evenodd" clip-rule="evenodd" d="M8.08995 15.143C4.40895 15.143 1.42395 11.181 1.42395 11.181C1.42395 11.181 4.40895 7.21997 8.09095 7.21997C11.772 7.21997 14.757 11.182 14.757 11.182C14.757 11.182 11.772 15.144 8.09095 15.144L8.08995 15.143ZM4.01195 12.39C3.5599 12.0172 3.13422 11.6136 2.73795 11.182C3.04795 10.844 3.48395 10.408 4.01195 9.97397C5.15295 9.03697 6.59595 8.21997 8.09195 8.21997C9.58795 8.21997 11.03 9.03697 12.172 9.97397C12.7 10.408 13.135 10.844 13.446 11.182C13.135 11.52 12.7 11.956 12.171 12.39C11.03 13.327 9.58795 14.144 8.09095 14.144C6.59595 14.144 5.15295 13.327 4.01195 12.39ZM9.35495 10.768C9.58595 10.768 9.79495 10.675 9.94795 10.525C10.0968 10.9438 10.0989 11.4008 9.95391 11.821C9.80888 12.2412 9.52533 12.5996 9.1498 12.8374C8.77426 13.0752 8.32904 13.1783 7.88719 13.1298C7.44534 13.0812 7.03311 12.884 6.71814 12.5703C6.40317 12.2567 6.20417 11.8452 6.1538 11.4036C6.10342 10.962 6.20466 10.5163 6.4409 10.1398C6.67715 9.76326 7.03436 9.47822 7.45393 9.33143C7.8735 9.18464 8.3305 9.18484 8.74995 9.33197C8.63386 9.45072 8.55538 9.60108 8.52434 9.76423C8.4933 9.92737 8.51108 10.096 8.57546 10.2491C8.63983 10.4022 8.74793 10.5329 8.88623 10.6248C9.02453 10.7168 9.18688 10.7659 9.35295 10.766L9.35495 10.768Z" fill="#111111"/>
</g>
<defs>
<clipPath id="clip0_1_619">
<rect width="16" height="16" fill="white" transform="translate(0.0899658 3.17993)"/>
</clipPath>
</defs>
</svg>
